# xmcd
#
# Track frame offsets:
#   182
#   19747
#   37900
#   54352
#   71482
#   86292
#   97705
#   110682
#   130180
#   147195
#   162997
#   177902
#
# Disc length: 2559 seconds
#
# Revision: 3
# Processed by: cddbd v1.5.1PL0 Copyright (c) Steve Scherf et al.
# Submitted via: Media_Universe 3.0
#
DISCID=9009fd0c
DTITLE=Kenny Rogers - Kenny Rogers All-Time Greatest Hits - Disc 3
DYEAR=1900
DGENRE=Country
TTITLE0=Coward Of The Country
TTITLE1=While The Feeling's Good
TTITLE2=Love Will Turn You Around
TTITLE3=We've Got Tonight (With Sheena Easton)
TTITLE4=A Love Song
TTITLE5=Fightin' Fire With Fire
TTITLE6=Love Or Something Like It
TTITLE7=Sweet Music Man
TTITLE8=Love Lifted Me
TTITLE9=Sail Away
TTITLE10='Til I Can Make It On My Own (With Dottie West)
TTITLE11=The Son Of Hickory Holler's Tramp
EXTD=
EXTT0=
EXTT1=
EXTT2=
EXTT3=
EXTT4=
EXTT5=
EXTT6=
EXTT7=
EXTT8=
EXTT9=
EXTT10=
EXTT11=
PLAYORDER=
